<svg xmlns="http://www.w3.org/2000/svg" xmlns:xlink="http://www.w3.org/1999/xlink" id="svg1" width="210mm" height="469.187"><defs id="defs3"><linearGradient id="linearGradient34"><stop style="stop-color:#194c8c;stop-opacity:1" id="stop35" offset="0"/><stop style="stop-color:#000;stop-opacity:1" id="stop36" offset="1"/></linearGradient><linearGradient id="linearGradient131"><stop style="stop-color:#7f7fff;stop-opacity:1" id="stop132" offset="0"/><stop style="stop-color:#000;stop-opacity:.498039" id="stop133" offset="1"/></linearGradient><linearGradient id="linearGradient61"><stop style="stop-color:#ff0;stop-opacity:1" id="stop62" offset="0"/><stop style="stop-color:#c7c562;stop-opacity:1" id="stop63" offset="1"/></linearGradient><linearGradient id="linearGradient64" xlink:href="#linearGradient61"/><radialGradient id="radialGradient65" cx=".5" cy=".5" r=".5" fx=".5" fy=".5" gradientTransform="translate(1.1435e-08,6.32431e-10)" gradientUnits="objectBoundingBox" spreadMethod="pad" xlink:href="#linearGradient34"/><linearGradient id="linearGradient71" x1="0" x2="1" y1="0" y2="0" gradientTransform="matrix(1,0,0,1,-1.73276e-08,1.06346e-07)" gradientUnits="objectBoundingBox" spreadMethod="pad" xlink:href="#linearGradient34"/><linearGradient id="linearGradient122" xlink:href="#linearGradient131"/><linearGradient id="linearGradient156" x1="0" x2="1" y1="0" y2="0" xlink:href="#linearGradient131"/><linearGradient id="linearGradient37" x1="0" x2="1" y1="0" y2="0" gradientTransform="translate(1.1435e-08,6.32431e-10)" gradientUnits="objectBoundingBox" spreadMethod="pad" xlink:href="#linearGradient34"/><linearGradient id="linearGradient38" x1="0" x2="1" y1="0" y2="0" gradientTransform="translate(1.1435e-08,6.32431e-10)" gradientUnits="objectBoundingBox" spreadMethod="pad" xlink:href="#linearGradient34"/><linearGradient id="linearGradient39" x1="0" x2="1" y1="0" y2="0" xlink:href="#linearGradient34"/><linearGradient id="linearGradient40" x1=".49" x2="1" y1=".1" y2="0" xlink:href="#linearGradient34"/><linearGradient id="linearGradient41" x1=".49" x2=".495" y1=".1" y2=".1" xlink:href="#linearGradient34"/><linearGradient id="linearGradient42" x1=".49" x2=".5" y1=".1" y2=".133" xlink:href="#linearGradient34"/><linearGradient id="linearGradient43" x1=".49" x2=".515" y1=".1" y2=".183" xlink:href="#linearGradient34"/><linearGradient id="linearGradient44" x1=".49" x2=".519" y1=".1" y2=".217" xlink:href="#linearGradient34"/><linearGradient id="linearGradient45" x1=".49" x2=".524" y1=".1" y2=".25" xlink:href="#linearGradient34"/><linearGradient id="linearGradient46" x1=".49" x2=".529" y1=".1" y2=".267" xlink:href="#linearGradient34"/><linearGradient id="linearGradient47" x1=".49" x2=".529" y1=".1" y2=".283" xlink:href="#linearGradient34"/><linearGradient id="linearGradient48" x1=".49" x2=".524" y1=".1" y2=".3" xlink:href="#linearGradient34"/><linearGradient id="linearGradient49" x1=".49" x2=".519" y1=".1" y2=".317" xlink:href="#linearGradient34"/><linearGradient id="linearGradient50" x1=".49" x2=".515" y1=".1" y2=".333" xlink:href="#linearGradient34"/><linearGradient id="linearGradient51" x1=".49" x2=".51" y1=".1" y2=".367" xlink:href="#linearGradient34"/><linearGradient id="linearGradient52" x1=".49" x2=".51" y1=".1" y2=".383" xlink:href="#linearGradient34"/><linearGradient id="linearGradient53" x1=".49" x2=".51" y1=".1" y2=".417" xlink:href="#linearGradient34"/><linearGradient id="linearGradient54" x1=".49" x2=".505" y1=".1" y2=".433" xlink:href="#linearGradient34"/><linearGradient id="linearGradient55" x1=".49" x2=".505" y1=".1" y2=".467" xlink:href="#linearGradient34"/><linearGradient id="linearGradient56" x1=".49" x2=".505" y1=".1" y2=".5" xlink:href="#linearGradient34"/><linearGradient id="linearGradient57" x1=".49" x2=".505" y1=".1" y2=".517" xlink:href="#linearGradient34"/><linearGradient id="linearGradient58" x1=".49" x2=".505" y1=".1" y2=".533" xlink:href="#linearGradient34"/><linearGradient id="linearGradient59" x1=".49" x2=".505" y1=".1" y2=".567" xlink:href="#linearGradient34"/><linearGradient id="linearGradient60" x1=".49" x2=".505" y1=".1" y2=".6" xlink:href="#linearGradient34"/><linearGradient id="linearGradient62" x1=".49" x2=".505" y1=".1" y2=".633" xlink:href="#linearGradient34"/><linearGradient id="linearGradient63" x1=".49" x2=".51" y1=".1" y2=".667" xlink:href="#linearGradient34"/><linearGradient id="linearGradient65" x1=".49" x2=".51" y1=".1" y2=".683" xlink:href="#linearGradient34"/><linearGradient id="linearGradient66" x1=".49" x2=".51" y1=".1" y2=".717" xlink:href="#linearGradient34"/><linearGradient id="linearGradient67" x1=".49" x2=".51" y1=".1" y2=".733" xlink:href="#linearGradient34"/><linearGradient id="linearGradient68" x1=".49" x2=".51" y1=".1" y2=".75" xlink:href="#linearGradient34"/><linearGradient id="linearGradient69" x1=".49" x2=".51" y1=".1" y2=".767" xlink:href="#linearGradient34"/><linearGradient id="linearGradient70" x1=".49" x2=".51" y1=".1" y2=".8" xlink:href="#linearGradient34"/><linearGradient id="linearGradient72" x1=".49" x2=".51" y1=".1" y2=".817" xlink:href="#linearGradient34"/><linearGradient id="linearGradient73" x1=".49" x2=".51" y1=".1" y2=".85" xlink:href="#linearGradient34"/><linearGradient id="linearGradient74" x1=".49" x2=".51" y1=".1" y2=".867" xlink:href="#linearGradient34"/><linearGradient id="linearGradient75" x1=".49" x2=".505" y1=".1" y2=".867" xlink:href="#linearGradient34"/><linearGradient id="linearGradient76" x1=".49" x2=".5" y1=".1" y2=".883" xlink:href="#linearGradient34"/><linearGradient id="linearGradient77" x1=".49" x2=".495" y1=".1" y2=".9" xlink:href="#linearGradient34"/><linearGradient id="linearGradient78" x1=".49" x2=".49" y1=".1" y2=".9" xlink:href="#linearGradient34"/><linearGradient id="linearGradient79" x1=".49" x2=".49" y1=".1" y2=".917" xlink:href="#linearGradient34"/><linearGradient id="linearGradient80" x1=".49" x2=".485" y1=".1" y2=".933" xlink:href="#linearGradient34"/><linearGradient id="linearGradient81" x1=".49" x2=".49" y1=".1" y2=".933" xlink:href="#linearGradient34"/><linearGradient id="linearGradient82" x1=".49" x2=".495" y1=".1" y2=".933" gradientTransform="translate(1.1435e-08,6.32431e-10)" gradientUnits="objectBoundingBox" spreadMethod="pad" xlink:href="#linearGradient34"/><linearGradient id="linearGradient83" x1=".49" x2=".495" y1=".1" y2=".933" xlink:href="#linearGradient34"/><linearGradient id="linearGradient84" x1=".495" x2=".495" y1=".933" y2=".933" xlink:href="#linearGradient34"/><linearGradient id="linearGradient85" x1=".495" x2=".495" y1=".933" y2=".883" xlink:href="#linearGradient34"/><linearGradient id="linearGradient86" x1=".495" x2=".495" y1=".933" y2=".85" xlink:href="#linearGradient34"/><linearGradient id="linearGradient87" x1=".495" x2=".495" y1=".933" y2=".8" xlink:href="#linearGradient34"/><linearGradient id="linearGradient88" x1=".495" x2=".495" y1=".933" y2=".767" xlink:href="#linearGradient34"/><linearGradient id="linearGradient89" x1=".495" x2=".495" y1=".933" y2=".75" xlink:href="#linearGradient34"/><linearGradient id="linearGradient90" x1=".495" x2=".495" y1=".933" y2=".733" xlink:href="#linearGradient34"/><linearGradient id="linearGradient91" x1=".495" x2=".495" y1=".933" y2=".7" xlink:href="#linearGradient34"/><linearGradient id="linearGradient92" x1=".495" x2=".495" y1=".933" y2=".667" xlink:href="#linearGradient34"/><linearGradient id="linearGradient93" x1=".495" x2=".495" y1=".933" y2=".65" xlink:href="#linearGradient34"/><linearGradient id="linearGradient94" x1=".495" x2=".495" y1=".933" y2=".633" xlink:href="#linearGradient34"/><linearGradient id="linearGradient95" x1=".495" x2=".495" y1=".933" y2=".617" xlink:href="#linearGradient34"/><linearGradient id="linearGradient96" x1=".495" x2=".495" y1=".933" y2=".583" xlink:href="#linearGradient34"/><linearGradient id="linearGradient97" x1=".495" x2=".495" y1=".933" y2=".55" xlink:href="#linearGradient34"/><linearGradient id="linearGradient98" x1=".495" x2=".495" y1=".933" y2=".517" xlink:href="#linearGradient34"/><linearGradient id="linearGradient99" x1=".495" x2=".495" y1=".933" y2=".5" xlink:href="#linearGradient34"/><linearGradient id="linearGradient100" x1=".495" x2=".5" y1=".933" y2=".467" xlink:href="#linearGradient34"/><linearGradient id="linearGradient101" x1=".495" x2=".5" y1=".933" y2=".45" xlink:href="#linearGradient34"/><linearGradient id="linearGradient102" x1=".495" x2=".5" y1=".933" y2=".417" xlink:href="#linearGradient34"/><linearGradient id="linearGradient103" x1=".495" x2=".5" y1=".933" y2=".4" xlink:href="#linearGradient34"/><linearGradient id="linearGradient104" x1=".495" x2=".5" y1=".933" y2=".367" xlink:href="#linearGradient34"/><linearGradient id="linearGradient105" x1=".495" x2=".505" y1=".933" y2=".35" xlink:href="#linearGradient34"/><linearGradient id="linearGradient106" x1=".495" x2=".505" y1=".933" y2=".333" xlink:href="#linearGradient34"/><linearGradient id="linearGradient107" x1=".495" x2=".505" y1=".933" y2=".3" xlink:href="#linearGradient34"/><linearGradient id="linearGradient108" x1=".495" x2=".505" y1=".933" y2=".283" xlink:href="#linearGradient34"/><linearGradient id="linearGradient109" x1=".495" x2=".505" y1=".933" y2=".25" xlink:href="#linearGradient34"/><linearGradient id="linearGradient110" x1=".495" x2=".505" y1=".933" y2=".2" xlink:href="#linearGradient34"/><linearGradient id="linearGradient111" x1=".495" x2=".51" y1=".933" y2=".133" xlink:href="#linearGradient34"/><linearGradient id="linearGradient112" x1=".495" x2=".51" y1=".933" y2=".1" xlink:href="#linearGradient34"/><linearGradient id="linearGradient113" x1=".495" x2=".51" y1=".933" y2=".067" xlink:href="#linearGradient34"/><linearGradient id="linearGradient114" x1=".495" x2=".51" y1=".933" y2=".033" xlink:href="#linearGradient34"/><linearGradient id="linearGradient115" x1=".495" x2=".51" y1=".933" y2="0" xlink:href="#linearGradient34"/><linearGradient id="linearGradient116" x1=".495" x2=".51" y1=".933" y2="-.033" xlink:href="#linearGradient34"/><linearGradient id="linearGradient117" x1=".495" x2=".51" y1=".933" y2="-.067" xlink:href="#linearGradient34"/><linearGradient id="linearGradient118" x1=".495" x2=".51" y1=".933" y2="-.1" xlink:href="#linearGradient34"/><linearGradient id="linearGradient119" x1=".495" x2=".51" y1=".933" y2="-.133" xlink:href="#linearGradient34"/><linearGradient id="linearGradient120" x1=".495" x2=".51" y1=".933" y2="-.167" xlink:href="#linearGradient34"/><linearGradient id="linearGradient121" x1=".495" x2=".51" y1=".933" y2="-.2" xlink:href="#linearGradient34"/><linearGradient id="linearGradient123" x1=".495" x2=".51" y1=".933" y2="-.233" xlink:href="#linearGradient34"/><linearGradient id="linearGradient124" x1=".495" x2=".51" y1=".933" y2="-.267" xlink:href="#linearGradient34"/><linearGradient id="linearGradient125" x1=".495" x2=".51" y1=".933" y2="-.3" xlink:href="#linearGradient34"/><linearGradient id="linearGradient126" x1=".495" x2=".51" y1=".933" y2="-.333" xlink:href="#linearGradient34"/><linearGradient id="linearGradient127" x1=".495" x2=".505" y1=".933" y2="-.367" xlink:href="#linearGradient34"/><linearGradient id="linearGradient128" x1=".495" x2=".505" y1=".933" y2="-.4" xlink:href="#linearGradient34"/><linearGradient id="linearGradient129" x1=".495" x2=".505" y1=".933" y2="-.433" xlink:href="#linearGradient34"/><linearGradient id="linearGradient130" x1=".495" x2=".505" y1=".933" y2="-.483" xlink:href="#linearGradient34"/><linearGradient id="linearGradient132" x1=".495" x2=".5" y1=".933" y2="-.517" xlink:href="#linearGradient34"/><linearGradient id="linearGradient133" x1=".495" x2=".5" y1=".933" y2="-.55" xlink:href="#linearGradient34"/><linearGradient id="linearGradient134" x1=".495" x2=".5" y1=".933" y2="-.617" xlink:href="#linearGradient34"/><linearGradient id="linearGradient135" x1=".495" x2=".495" y1=".933" y2="-.667" xlink:href="#linearGradient34"/><linearGradient id="linearGradient136" x1=".495" x2=".495" y1=".933" y2="-.7" xlink:href="#linearGradient34"/><linearGradient id="linearGradient137" x1=".495" x2=".495" y1=".933" y2="-.717" xlink:href="#linearGradient34"/><linearGradient id="linearGradient138" x1=".495" x2=".495" y1=".933" y2="-.75" xlink:href="#linearGradient34"/><linearGradient id="linearGradient139" x1=".495" x2=".495" y1=".933" y2="-.767" xlink:href="#linearGradient34"/><linearGradient id="linearGradient140" x1=".495" x2=".495" y1=".933" y2="-.783" xlink:href="#linearGradient34"/><linearGradient id="linearGradient141" x1=".495" x2=".495" y1=".933" y2="-.8" xlink:href="#linearGradient34"/><linearGradient id="linearGradient142" x1=".495" x2=".495" y1=".933" y2="-.833" xlink:href="#linearGradient34"/><linearGradient id="linearGradient143" x1=".495" x2=".49" y1=".933" y2="-.883" xlink:href="#linearGradient34"/><linearGradient id="linearGradient144" x1=".495" x2=".49" y1=".933" y2="-.917" xlink:href="#linearGradient34"/><linearGradient id="linearGradient145" x1=".495" x2=".49" y1=".933" y2="-.933" xlink:href="#linearGradient34"/><linearGradient id="linearGradient146" x1=".495" x2=".49" y1=".933" y2="-.95" xlink:href="#linearGradient34"/><linearGradient id="linearGradient147" x1=".495" x2=".49" y1=".933" y2="-.983" xlink:href="#linearGradient34"/><linearGradient id="linearGradient148" x1=".495" x2=".49" y1=".933" y2="-1.033" xlink:href="#linearGradient34"/><linearGradient id="linearGradient149" x1=".495" x2=".49" y1=".933" y2="-1.067" xlink:href="#linearGradient34"/><linearGradient id="linearGradient150" x1=".495" x2=".49" y1=".933" y2="-1.083" xlink:href="#linearGradient34"/><linearGradient id="linearGradient151" x1=".495" x2=".49" y1=".933" y2="-1.117" xlink:href="#linearGradient34"/><linearGradient id="linearGradient152" x1=".495" x2=".49" y1=".933" y2="-1.15" xlink:href="#linearGradient34"/><linearGradient id="linearGradient153" x1=".495" x2=".49" y1=".933" y2="-1.167" xlink:href="#linearGradient34"/><linearGradient id="linearGradient154" x1=".495" x2=".49" y1=".933" y2="-1.2" xlink:href="#linearGradient34"/><linearGradient id="linearGradient155" x1=".495" x2=".49" y1=".933" y2="-1.217" xlink:href="#linearGradient34"/><linearGradient id="linearGradient157" x1=".495" x2=".485" y1=".933" y2="-1.25" xlink:href="#linearGradient34"/><linearGradient id="linearGradient158" x1=".495" x2=".481" y1=".933" y2="-1.283" xlink:href="#linearGradient34"/><linearGradient id="linearGradient159" x1=".495" x2=".461" y1=".933" y2="-1.233" xlink:href="#linearGradient34"/><linearGradient id="linearGradient160" x1=".495" x2=".432" y1=".933" y2="-1.183" xlink:href="#linearGradient34"/><linearGradient id="linearGradient161" x1=".495" x2=".413" y1=".933" y2="-1.117" xlink:href="#linearGradient34"/><linearGradient id="linearGradient162" x1=".495" x2=".383" y1=".933" y2="-1.05" xlink:href="#linearGradient34"/><linearGradient id="linearGradient163" x1=".495" x2=".35" y1=".933" y2="-.933" xlink:href="#linearGradient34"/><linearGradient id="linearGradient164" x1=".495" x2=".335" y1=".933" y2="-.883" xlink:href="#linearGradient34"/><linearGradient id="linearGradient165" x1=".495" x2=".33" y1=".933" y2="-.85" xlink:href="#linearGradient34"/><linearGradient id="linearGradient166" x1=".495" x2=".325" y1=".933" y2="-.817" xlink:href="#linearGradient34"/><linearGradient id="linearGradient167" x1=".495" x2=".32" y1=".933" y2="-.8" xlink:href="#linearGradient34"/><linearGradient id="linearGradient168" x1=".495" x2=".32" y1=".933" y2="-.767" xlink:href="#linearGradient34"/><linearGradient id="linearGradient169" x1=".495" x2=".316" y1=".933" y2="-.733" xlink:href="#linearGradient34"/><linearGradient id="linearGradient170" x1=".495" x2=".301" y1=".933" y2="-.683" xlink:href="#linearGradient34"/><linearGradient id="linearGradient171" x1=".495" x2=".296" y1=".933" y2="-.667" xlink:href="#linearGradient34"/><linearGradient id="linearGradient172" x1=".495" x2=".286" y1=".933" y2="-.6" xlink:href="#linearGradient34"/><linearGradient id="linearGradient173" x1=".495" x2=".277" y1=".933" y2="-.583" xlink:href="#linearGradient34"/><linearGradient id="linearGradient174" x1=".495" x2=".248" y1=".933" y2="-.483" xlink:href="#linearGradient34"/><linearGradient id="linearGradient175" x1=".495" x2=".233" y1=".933" y2="-.433" xlink:href="#linearGradient34"/><linearGradient id="linearGradient176" x1=".495" x2=".214" y1=".933" y2="-.383" xlink:href="#linearGradient34"/><linearGradient id="linearGradient177" x1=".495" x2=".194" y1=".933" y2="-.333" xlink:href="#linearGradient34"/><linearGradient id="linearGradient178" x1=".495" x2=".16" y1=".933" y2="-.283" xlink:href="#linearGradient34"/><linearGradient id="linearGradient179" x1=".495" x2=".126" y1=".933" y2="-.267" xlink:href="#linearGradient34"/><linearGradient id="linearGradient180" x1=".495" x2=".092" y1=".933" y2="-.217" xlink:href="#linearGradient34"/><linearGradient id="linearGradient181" x1=".495" x2=".049" y1=".933" y2="-.217" xlink:href="#linearGradient34"/><linearGradient id="linearGradient182" x1=".495" x2=".015" y1=".933" y2="-.2" xlink:href="#linearGradient34"/><linearGradient id="linearGradient183" x1=".495" x2="-.092" y1=".933" y2="-.2" xlink:href="#linearGradient34"/><linearGradient id="linearGradient184" x1=".495" x2="-.121" y1=".933" y2="-.217" xlink:href="#linearGradient34"/><linearGradient id="linearGradient185" x1=".495" x2="-.15" y1=".933" y2="-.217" xlink:href="#linearGradient34"/><linearGradient id="linearGradient186" x1=".495" x2="-.16" y1=".933" y2="-.217" xlink:href="#linearGradient34"/><linearGradient id="linearGradient187" x1=".495" x2="-.175" y1=".933" y2="-.2" xlink:href="#linearGradient34"/><linearGradient id="linearGradient188" x1=".495" x2="-.18" y1=".933" y2="-.183" xlink:href="#linearGradient34"/><linearGradient id="linearGradient189" x1=".495" x2="-.184" y1=".933" y2="-.15" xlink:href="#linearGradient34"/><linearGradient id="linearGradient190" x1=".495" x2="-.189" y1=".933" y2="-.133" xlink:href="#linearGradient34"/><linearGradient id="linearGradient191" x1=".495" x2="-.194" y1=".933" y2="-.067" xlink:href="#linearGradient34"/><linearGradient id="linearGradient192" x1=".495" x2="-.209" y1=".933" y2="0" xlink:href="#linearGradient34"/><linearGradient id="linearGradient193" x1=".495" x2="-.214" y1=".933" y2=".067" xlink:href="#linearGradient34"/><linearGradient id="linearGradient194" x1=".495" x2="-.218" y1=".933" y2=".167" xlink:href="#linearGradient34"/><linearGradient id="linearGradient195" x1=".495" x2="-.218" y1=".933" y2=".383" xlink:href="#linearGradient34"/><linearGradient id="linearGradient196" x1=".495" x2="-.218" y1=".933" y2=".483" xlink:href="#linearGradient34"/><linearGradient id="linearGradient197" x1=".495" x2="-.214" y1=".933" y2=".583" xlink:href="#linearGradient34"/><linearGradient id="linearGradient198" x1=".495" x2="-.209" y1=".933" y2=".683" xlink:href="#linearGradient34"/><linearGradient id="linearGradient199" x1=".495" x2="-.199" y1=".933" y2=".867" xlink:href="#linearGradient34"/><linearGradient id="linearGradient200" x1=".495" x2="-.194" y1=".933" y2=".933" xlink:href="#linearGradient34"/><linearGradient id="linearGradient201" x1=".495" x2="-.189" y1=".933" y2="1" xlink:href="#linearGradient34"/><linearGradient id="linearGradient202" x1=".495" x2="-.175" y1=".933" y2="1.067" xlink:href="#linearGradient34"/><linearGradient id="linearGradient203" x1=".495" x2="-.16" y1=".933" y2="1.117" xlink:href="#linearGradient34"/><linearGradient id="linearGradient204" x1=".495" x2="-.146" y1=".933" y2="1.183" xlink:href="#linearGradient34"/><linearGradient id="linearGradient205" x1=".495" x2="-.126" y1=".933" y2="1.233" xlink:href="#linearGradient34"/><linearGradient id="linearGradient206" x1=".495" x2="-.107" y1=".933" y2="1.283" xlink:href="#linearGradient34"/><linearGradient id="linearGradient207" x1=".495" x2="-.087" y1=".933" y2="1.3" xlink:href="#linearGradient34"/><linearGradient id="linearGradient208" x1=".495" x2="-.058" y1=".933" y2="1.317" xlink:href="#linearGradient34"/><linearGradient id="linearGradient209" x1=".495" x2=".029" y1=".933" y2="1.317" xlink:href="#linearGradient34"/><linearGradient id="linearGradient210" x1=".495" x2=".049" y1=".933" y2="1.3" xlink:href="#linearGradient34"/><linearGradient id="linearGradient211" x1=".495" x2=".078" y1=".933" y2="1.233" xlink:href="#linearGradient34"/><linearGradient id="linearGradient212" x1=".495" x2=".097" y1=".933" y2="1.183" xlink:href="#linearGradient34"/><linearGradient id="linearGradient213" x1=".495" x2=".117" y1=".933" y2="1.083" xlink:href="#linearGradient34"/><linearGradient id="linearGradient214" x1=".495" x2=".136" y1=".933" y2="1.017" xlink:href="#linearGradient34"/><linearGradient id="linearGradient215" x1=".495" x2=".155" y1=".933" y2=".917" xlink:href="#linearGradient34"/><linearGradient id="linearGradient216" x1=".495" x2=".17" y1=".933" y2=".817" xlink:href="#linearGradient34"/><linearGradient id="linearGradient217" x1=".495" x2=".184" y1=".933" y2=".75" xlink:href="#linearGradient34"/><linearGradient id="linearGradient218" x1=".495" x2=".189" y1=".933" y2=".65" xlink:href="#linearGradient34"/><linearGradient id="linearGradient219" x1=".495" x2=".194" y1=".933" y2=".583" xlink:href="#linearGradient34"/><linearGradient id="linearGradient220" x1=".495" x2=".199" y1=".933" y2=".517" xlink:href="#linearGradient34"/><linearGradient id="linearGradient221" x1=".495" x2=".204" y1=".933" y2=".45" xlink:href="#linearGradient34"/><linearGradient id="linearGradient222" x1=".495" x2=".218" y1=".933" y2=".383" xlink:href="#linearGradient34"/><linearGradient id="linearGradient223" x1=".495" x2=".223" y1=".933" y2=".317" xlink:href="#linearGradient34"/><linearGradient id="linearGradient224" x1=".495" x2=".238" y1=".933" y2=".25" xlink:href="#linearGradient34"/><linearGradient id="linearGradient225" x1=".495" x2=".243" y1=".933" y2=".183" xlink:href="#linearGradient34"/><linearGradient id="linearGradient226" x1=".495" x2=".257" y1=".933" y2=".133" xlink:href="#linearGradient34"/><linearGradient id="linearGradient227" x1=".495" x2=".272" y1=".933" y2=".083" xlink:href="#linearGradient34"/><linearGradient id="linearGradient228" x1=".495" x2=".277" y1=".933" y2=".05" xlink:href="#linearGradient34"/><linearGradient id="linearGradient229" x1=".495" x2=".291" y1=".933" y2="0" xlink:href="#linearGradient34"/><linearGradient id="linearGradient230" x1=".495" x2=".296" y1=".933" y2="-.017" xlink:href="#linearGradient34"/><linearGradient id="linearGradient231" x1=".495" x2=".301" y1=".933" y2="-.033" xlink:href="#linearGradient34"/><linearGradient id="linearGradient232" x1=".495" x2=".306" y1=".933" y2="-.05" xlink:href="#linearGradient34"/><linearGradient id="linearGradient233" x1=".495" x2=".311" y1=".933" y2="-.067" xlink:href="#linearGradient34"/><linearGradient id="linearGradient234" x1=".495" x2=".316" y1=".933" y2="-.083" xlink:href="#linearGradient34"/><linearGradient id="linearGradient235" x1=".495" x2=".325" y1=".933" y2="-.1" xlink:href="#linearGradient34"/><linearGradient id="linearGradient236" x1=".495" x2=".33" y1=".933" y2="-.117" xlink:href="#linearGradient34"/><linearGradient id="linearGradient237" x1=".495" x2=".34" y1=".933" y2="-.117" xlink:href="#linearGradient34"/><linearGradient id="linearGradient238" x1=".495" x2=".345" y1=".933" y2="-.117" xlink:href="#linearGradient34"/><linearGradient id="linearGradient239" x1=".495" x2=".354" y1=".933" y2="-.133" xlink:href="#linearGradient34"/><linearGradient id="linearGradient240" x1=".495" x2=".364" y1=".933" y2="-.133" xlink:href="#linearGradient34"/><linearGradient id="linearGradient241" x1=".495" x2=".379" y1=".933" y2="-.133" xlink:href="#linearGradient34"/><linearGradient id="linearGradient242" x1=".495" x2=".398" y1=".933" y2="-.117" xlink:href="#linearGradient34"/><linearGradient id="linearGradient243" x1=".495" x2=".427" y1=".933" y2="-.1" xlink:href="#linearGradient34"/><linearGradient id="linearGradient244" x1=".495" x2=".461" y1=".933" y2="-.05" xlink:href="#linearGradient34"/><linearGradient id="linearGradient245" x1=".495" x2=".505" y1=".933" y2=".017" xlink:href="#linearGradient34"/><linearGradient id="linearGradient246" x1=".495" x2=".549" y1=".933" y2=".083" xlink:href="#linearGradient34"/><linearGradient id="linearGradient247" x1=".495" x2=".597" y1=".933" y2=".15" xlink:href="#linearGradient34"/><linearGradient id="linearGradient248" x1=".495" x2=".646" y1=".933" y2=".25" xlink:href="#linearGradient34"/><linearGradient id="linearGradient249" x1=".495" x2=".689" y1=".933" y2=".317" xlink:href="#linearGradient34"/><linearGradient id="linearGradient250" x1=".495" x2=".723" y1=".933" y2=".383" xlink:href="#linearGradient34"/><linearGradient id="linearGradient251" x1=".495" x2=".743" y1=".933" y2=".433" xlink:href="#linearGradient34"/><linearGradient id="linearGradient252" x1=".495" x2=".762" y1=".933" y2=".483" xlink:href="#linearGradient34"/><linearGradient id="linearGradient253" x1=".495" x2=".762" y1=".933" y2=".5" xlink:href="#linearGradient34"/><linearGradient id="linearGradient254" x1=".495" x2=".757" y1=".933" y2=".517" xlink:href="#linearGradient34"/><linearGradient id="linearGradient255" x1=".495" x2=".743" y1=".933" y2=".517" xlink:href="#linearGradient34"/><linearGradient id="linearGradient256" x1=".495" x2=".728" y1=".933" y2=".467" xlink:href="#linearGradient34"/><linearGradient id="linearGradient257" x1=".495" x2=".699" y1=".933" y2=".45" xlink:href="#linearGradient34"/><linearGradient id="linearGradient258" x1=".495" x2=".68" y1=".933" y2=".433" xlink:href="#linearGradient34"/><linearGradient id="linearGradient259" x1=".495" x2=".67" y1=".933" y2=".417" xlink:href="#linearGradient34"/><linearGradient id="linearGradient260" x1=".495" x2=".66" y1=".933" y2=".4" xlink:href="#linearGradient34"/><linearGradient id="linearGradient261" x1=".495" x2=".65" y1=".933" y2=".4" xlink:href="#linearGradient34"/><linearGradient id="linearGradient262" x1=".495" x2=".646" y1=".933" y2=".383" xlink:href="#linearGradient34"/><linearGradient id="linearGradient263" x1=".495" x2=".641" y1=".933" y2=".383" xlink:href="#linearGradient34"/><linearGradient id="linearGradient264" x1=".495" x2=".631" y1=".933" y2=".383" xlink:href="#linearGradient34"/><linearGradient id="linearGradient265" x1=".495" x2=".621" y1=".933" y2=".367" xlink:href="#linearGradient34"/><linearGradient id="linearGradient266" x1=".495" x2=".607" y1=".933" y2=".317" xlink:href="#linearGradient34"/><linearGradient id="linearGradient267" x1=".495" x2=".602" y1=".933" y2=".3" xlink:href="#linearGradient34"/><linearGradient id="linearGradient268" x1=".495" x2=".597" y1=".933" y2=".267" xlink:href="#linearGradient34"/><linearGradient id="linearGradient269" x1=".495" x2=".592" y1=".933" y2=".25" xlink:href="#linearGradient34"/><linearGradient id="linearGradient270" x1=".495" x2=".587" y1=".933" y2=".217" xlink:href="#linearGradient34"/><linearGradient id="linearGradient271" x1=".495" x2=".583" y1=".933" y2=".2" xlink:href="#linearGradient34"/><linearGradient id="linearGradient272" x1=".495" x2=".578" y1=".933" y2=".183" xlink:href="#linearGradient34"/><linearGradient id="linearGradient273" x1=".495" x2=".573" y1=".933" y2=".15" xlink:href="#linearGradient34"/><linearGradient id="linearGradient274" x1=".495" x2=".568" y1=".933" y2=".117" xlink:href="#linearGradient34"/><linearGradient id="linearGradient275" x1=".495" x2=".563" y1=".933" y2=".1" xlink:href="#linearGradient34"/><linearGradient id="linearGradient276" x1=".495" x2=".558" y1=".933" y2=".083" xlink:href="#linearGradient34"/><linearGradient id="linearGradient277" x1=".495" x2=".558" y1=".933" y2=".05" xlink:href="#linearGradient34"/><linearGradient id="linearGradient278" x1=".495" x2=".553" y1=".933" y2=".017" xlink:href="#linearGradient34"/><linearGradient id="linearGradient279" x1=".495" x2=".549" y1=".933" y2="0" xlink:href="#linearGradient34"/><linearGradient id="linearGradient280" x1=".495" x2=".544" y1=".933" y2="-.017" xlink:href="#linearGradient34"/><linearGradient id="linearGradient281" x1=".495" x2=".539" y1=".933" y2="-.033" xlink:href="#linearGradient34"/><linearGradient id="linearGradient282" x1=".495" x2=".534" y1=".933" y2="-.033" xlink:href="#linearGradient34"/><linearGradient id="linearGradient283" x1=".495" x2=".529" y1=".933" y2="-.017" xlink:href="#linearGradient34"/><linearGradient id="linearGradient284" x1=".495" x2=".524" y1=".933" y2="-.017" xlink:href="#linearGradient34"/><linearGradient id="linearGradient285" x1=".495" x2=".519" y1=".933" y2="0" xlink:href="#linearGradient34"/><linearGradient id="linearGradient286" x1=".495" x2=".515" y1=".933" y2="0" xlink:href="#linearGradient34"/><linearGradient id="linearGradient287" x1=".495" x2=".51" y1=".933" y2=".017" xlink:href="#linearGradient34"/><linearGradient id="linearGradient288" x1=".495" x2=".505" y1=".933" y2=".017" xlink:href="#linearGradient34"/><linearGradient id="linearGradient289" x1=".495" x2=".5" y1=".933" y2=".017" xlink:href="#linearGradient34"/><linearGradient id="linearGradient290" x1=".495" x2=".49" y1=".933" y2=".033" xlink:href="#linearGradient34"/><linearGradient id="linearGradient291" x1=".495" x2=".485" y1=".933" y2=".05" xlink:href="#linearGradient34"/><linearGradient id="linearGradient292" x1=".495" x2=".49" y1=".933" y2=".05" xlink:href="#linearGradient34"/><linearGradient id="linearGradient293" x1=".495" x2=".495" y1=".933" y2=".033" xlink:href="#linearGradient34"/><linearGradient id="linearGradient294" x1=".495" x2=".5" y1=".933" y2=".033" xlink:href="#linearGradient34"/><linearGradient id="linearGradient295" x1=".495" x2=".495" y1=".933" y2=".033" xlink:href="#linearGradient34"/><linearGradient id="linearGradient296" x1=".495" x2=".49" y1=".933" y2=".033" gradientTransform="translate(1.1435e-08,6.32431e-10)" gradientUnits="objectBoundingBox" spreadMethod="pad" xlink:href="#linearGradient34"/><linearGradient id="linearGradient297" x1=".495" x2=".49" y1=".933" y2=".033" xlink:href="#linearGradient34"/><linearGradient id="linearGradient298" x1=".49" x2=".49" y1=".033" y2=".033" xlink:href="#linearGradient34"/><linearGradient id="linearGradient299" x1=".49" x2=".5" y1=".033" y2=".033" xlink:href="#linearGradient34"/><linearGradient id="linearGradient300" x1=".49" x2=".505" y1=".033" y2=".017" xlink:href="#linearGradient34"/><linearGradient id="linearGradient301" x1=".49" x2=".505" y1=".033" y2=".05" xlink:href="#linearGradient34"/><linearGradient id="linearGradient302" x1=".49" x2=".505" y1=".033" y2=".083" xlink:href="#linearGradient34"/><linearGradient id="linearGradient303" x1=".49" x2=".505" y1=".033" y2=".117" xlink:href="#linearGradient34"/><linearGradient id="linearGradient304" x1=".49" x2=".505" y1=".033" y2=".133" xlink:href="#linearGradient34"/><linearGradient id="linearGradient305" x1=".49" x2=".505" y1=".033" y2=".167" xlink:href="#linearGradient34"/><linearGradient id="linearGradient306" x1=".49" x2=".505" y1=".033" y2=".217" xlink:href="#linearGradient34"/><linearGradient id="linearGradient307" x1=".49" x2=".5" y1=".033" y2=".283" xlink:href="#linearGradient34"/><linearGradient id="linearGradient308" x1=".49" x2=".5" y1=".033" y2=".317" xlink:href="#linearGradient34"/><linearGradient id="linearGradient309" x1=".49" x2=".5" y1=".033" y2=".367" xlink:href="#linearGradient34"/><linearGradient id="linearGradient310" x1=".49" x2=".5" y1=".033" y2=".417" xlink:href="#linearGradient34"/><linearGradient id="linearGradient311" x1=".49" x2=".495" y1=".033" y2=".45" xlink:href="#linearGradient34"/><linearGradient id="linearGradient312" x1=".49" x2=".495" y1=".033" y2=".5" xlink:href="#linearGradient34"/><linearGradient id="linearGradient313" x1=".49" x2=".495" y1=".033" y2=".533" xlink:href="#linearGradient34"/><linearGradient id="linearGradient314" x1=".49" x2=".495" y1=".033" y2=".567" xlink:href="#linearGradient34"/><linearGradient id="linearGradient315" x1=".49" x2=".495" y1=".033" y2=".6" xlink:href="#linearGradient34"/><linearGradient id="linearGradient316" x1=".49" x2=".495" y1=".033" y2=".633" xlink:href="#linearGradient34"/><linearGradient id="linearGradient317" x1=".49" x2=".495" y1=".033" y2=".667" xlink:href="#linearGradient34"/><linearGradient id="linearGradient318" x1=".49" x2=".495" y1=".033" y2=".7" xlink:href="#linearGradient34"/><linearGradient id="linearGradient319" x1=".49" x2=".49" y1=".033" y2=".733" xlink:href="#linearGradient34"/><linearGradient id="linearGradient320" x1=".49" x2=".49" y1=".033" y2=".767" xlink:href="#linearGradient34"/><linearGradient id="linearGradient321" x1=".49" x2=".49" y1=".033" y2=".8" xlink:href="#linearGradient34"/><linearGradient id="linearGradient322" x1=".49" x2=".49" y1=".033" y2=".817" xlink:href="#linearGradient34"/><linearGradient id="linearGradient323" x1=".49" x2=".49" y1=".033" y2=".833" xlink:href="#linearGradient34"/><linearGradient id="linearGradient324" x1=".49" x2=".49" y1=".033" y2=".883" xlink:href="#linearGradient34"/><linearGradient id="linearGradient325" x1=".49" x2=".485" y1=".033" y2=".917" xlink:href="#linearGradient34"/><linearGradient id="linearGradient326" x1=".49" x2=".485" y1=".033" y2=".933" xlink:href="#linearGradient34"/><linearGradient id="linearGradient327" x1=".49" x2=".485" y1=".033" y2=".967" xlink:href="#linearGradient34"/><linearGradient id="linearGradient328" x1=".49" x2=".49" y1=".033" y2=".983" xlink:href="#linearGradient34"/><linearGradient id="linearGradient329" x1=".49" x2=".495" y1=".033" y2="1" xlink:href="#linearGradient34"/><linearGradient id="linearGradient330" x1=".49" x2=".495" y1=".033" y2=".983" xlink:href="#linearGradient34"/><linearGradient id="linearGradient331" x1=".49" x2=".495" y1=".033" y2=".967" xlink:href="#linearGradient34"/><linearGradient id="linearGradient332" x1=".49" x2=".49" y1=".033" y2=".933" xlink:href="#linearGradient34"/><linearGradient id="linearGradient333" x1=".49" x2=".485" y1=".033" y2=".933" xlink:href="#linearGradient34"/><linearGradient id="linearGradient334" x1=".49" x2=".49" y1=".033" y2=".917" xlink:href="#linearGradient34"/><linearGradient id="linearGradient335" x1=".49" x2=".49" y1=".033" y2=".933" gradientTransform="translate(1.1435e-08,6.32431e-10)" gradientUnits="objectBoundingBox" spreadMethod="pad" xlink:href="#linearGradient34"/><radialGradient id="radialGradient336" cx=".5" cy=".5" r=".5" fx=".5" fy=".5" xlink:href="#linearGradient34"/></defs><path style="fill:#000;fill-rule:nonzero;stroke:none;fill-opacity:1;stroke-opacity:1;stroke-width:1pt;stroke-linejoin:miter;stroke-linecap:butt" id="path21" d="M 1221.38 1312.63 C 1221.38 1312.61 1221.39 1312.58 1221.39 1312.55 L 1251.58 1312.55 C 1251.59 1312.58 1251.59 1312.61 1251.6 1312.63 L 1221.38 1312.63 z"/><g id="g158" transform="matrix(1.20789,0,0,1.20789,94.6757,-87.3188)" style="font-size:12"><g id="g127" transform="translate(210.799,-191.19)"><path style="font-size:12;fill:url(#linearGradient64);stroke:#000;stroke-width:21.896;stroke-dasharray:none" id="path59" d="M 398.228 208.454 C 369.379 327.869 316.667 432.514 215.092 505.497 C 127.841 559.283 24.8355 584.036 -77.4516 572.49 C -147.916 559.373 -141.322 527.675 -95.8332 486.614 C -53.5659 450.105 -13.4054 410.978 23.518 368.777 C 53.6509 332.496 66.9405 307.674 97.2593 273.747 C 117.322 251.458 140.347 217.768 158.055 190.115 C 175.795 163.933 269.382 72.1144 289.798 56.806 C 311.619 47.7151 324.126 34.8321 347.196 29.5364 C 369.525 24.9698 423.657 25.2191 431.063 35.4112 L 420.488 51.9958 C 420.488 51.9958 409.573 154.395 398.228 208.454 z" transform="matrix(0.190103,0,0,0.190103,-247.912,281.284)"/><path style="font-size:12;stroke-width:1pt" id="path60" d="M 456.001 27.6213 C 402.399 57.8248 383.834 70.2271 371.441 86.5123 C 347.882 127.119 318.848 160.403 297.853 217.045 C 286.198 257.883 153.274 433.385 105.401 459.47 C 59.684 482.768 11.1746 514.476 -38.1541 528.352 C -62.0043 534.806 -85.9818 539.285 -110.125 544.274 C -111.491 544.586 -117.473 557.485 -118.346 557.79 L -132.585 533.763 C -130.149 533.314 -85.6493 532.759 -44.567 515.569 C 3.13052 503.065 201.855 425.647 318.537 138.704 C 366.682 70.558 409.454 -22.9096 415.988 -10.6084 L 456.001 27.6213 z" transform="matrix(0.190103,0,0,0.190103,-247.912,281.284)"/><path style="fill:#000;fill-rule:nonzero;stroke:none;fill-opacity:1;stroke-opacity:1;stroke-width:1pt;stroke-linejoin:miter;stroke-linecap:butt" id="path126" d="M -171.942 282.763 C -171.881 282.284 -171.631 281.806 -171.492 281.344 C -171.201 280.318 -170.968 279.287 -170.576 278.292 C -170.02 276.972 -169.309 275.91 -167.811 275.637 C -166.237 275.557 -165.127 276.445 -164.262 277.674 C -163.649 278.616 -163.265 279.679 -162.686 280.64 C -162.183 281.415 -161.512 281.908 -160.825 282.506 C -160.024 283.243 -159.319 284.127 -159.385 285.272 C -159.6 286.522 -160.647 287.197 -161.769 287.589 C -162.917 287.929 -164.11 288.014 -165.299 288.082 L -171.942 282.763 z"/></g><g id="g143" transform="matrix(0.88019,-0.474622,0.474622,0.88019,60.1787,-237.611)"><path style="font-size:12;fill:url(#linearGradient64);stroke:#000;stroke-width:21.896;stroke-dasharray:none" id="path144" d="M 398.228 208.454 C 369.379 327.869 316.667 432.514 215.092 505.497 C 127.841 559.283 24.8355 584.036 -77.4516 572.49 C -147.916 559.373 -141.322 527.675 -95.8332 486.614 C -53.5659 450.105 -13.4054 410.978 23.518 368.777 C 53.6509 332.496 66.9405 307.674 97.2593 273.747 C 117.322 251.458 140.347 217.768 158.055 190.115 C 175.795 163.933 269.382 72.1144 289.798 56.806 C 311.619 47.7151 324.126 34.8321 347.196 29.5364 C 369.525 24.9698 423.657 25.2191 431.063 35.4112 L 420.488 51.9958 C 420.488 51.9958 409.573 154.395 398.228 208.454 z" transform="matrix(0.190103,0,0,0.190103,-247.912,281.284)"/><path style="font-size:12;stroke-width:1pt" id="path145" d="M 456.001 27.6213 C 402.399 57.8248 383.834 70.2271 371.441 86.5123 C 347.882 127.119 318.848 160.403 297.853 217.045 C 286.198 257.883 153.274 433.385 105.401 459.47 C 59.684 482.768 11.1746 514.476 -38.1541 528.352 C -62.0043 534.806 -85.9818 539.285 -110.125 544.274 C -111.491 544.586 -117.473 557.485 -118.346 557.79 L -132.585 533.763 C -130.149 533.314 -85.6493 532.759 -44.567 515.569 C 3.13052 503.065 201.855 425.647 318.537 138.704 C 366.682 70.558 409.454 -22.9096 415.988 -10.6084 L 456.001 27.6213 z" transform="matrix(0.190103,0,0,0.190103,-247.912,281.284)"/><path style="fill:#000;fill-rule:nonzero;stroke:none;fill-opacity:1;stroke-opacity:1;stroke-width:1pt;stroke-linejoin:miter;stroke-linecap:butt" id="path146" d="M -171.942 282.763 C -171.881 282.284 -171.631 281.806 -171.492 281.344 C -171.201 280.318 -170.968 279.287 -170.576 278.292 C -170.02 276.972 -169.309 275.91 -167.811 275.637 C -166.237 275.557 -165.127 276.445 -164.262 277.674 C -163.649 278.616 -163.265 279.679 -162.686 280.64 C -162.183 281.415 -161.512 281.908 -160.825 282.506 C -160.024 283.243 -159.319 284.127 -159.385 285.272 C -159.6 286.522 -160.647 287.197 -161.769 287.589 C -162.917 287.929 -164.11 288.014 -165.299 288.082 L -171.942 282.763 z"/></g></g></svg>